<svg xmlns="http://www.w3.org/2000/svg" version="1.1" xmlns:xlink="http://www.w3.org/1999/xlink" xmlns:svgjs="http://svgjs.dev/svgjs" viewBox="0 0 1422 800"><circle r="16" cx="182" cy="778" fill="hsl(91, 24%, 25%)" opacity="0.81"></circle><circle r="7.5" cx="806" cy="26" fill="hsl(164, 24%, 25%)" opacity="0.83"></circle><circle r="15.5" cx="358" cy="354" fill="hsl(107, 24%, 25%)" opacity="0.68"></circle><circle r="12" cx="885" cy="504" fill="hsl(139, 24%, 25%)" opacity="0.55"></circle><circle r="16.5" cx="315" cy="68" fill="hsl(103, 24%, 25%)" opacity="0.52"></circle><circle r="13.5" cx="1097" cy="724" fill="hsl(133, 24%, 25%)" opacity="0.31"></circle><circle r="11.5" cx="825" cy="163" fill="hsl(144, 24%, 25%)" opacity="0.47"></circle><circle r="13" cx="702" cy="304" fill="hsl(131, 24%, 25%)" opacity="0.91"></circle><circle r="14.5" cx="559" cy="287" fill="hsl(125, 24%, 25%)" opacity="0.79"></circle><circle r="16.5" cx="280" cy="292" fill="hsl(96, 24%, 25%)" opacity="0.89"></circle><circle r="18" cx="215" cy="155" fill="hsl(91, 24%, 25%)" opacity="0.44"></circle><circle r="17.5" cx="332" cy="574" fill="hsl(101, 24%, 25%)" opacity="0.42"></circle><circle r="16.5" cx="24" cy="404" fill="hsl(102, 24%, 25%)" opacity="0.18"></circle><circle r="17" cx="103" cy="325" fill="hsl(94, 24%, 25%)" opacity="0.38"></circle><circle r="16.5" cx="364" cy="616" fill="hsl(107, 24%, 25%)" opacity="0.28"></circle><circle r="12" cx="910" cy="408" fill="hsl(139, 24%, 25%)" opacity="0.19"></circle><circle r="10.5" cx="1309" cy="500" fill="hsl(153, 24%, 25%)" opacity="0.26"></circle><circle r="14" cx="606" cy="485" fill="hsl(127, 24%, 25%)" opacity="0.26"></circle><circle r="14" cx="20" cy="208" fill="hsl(105, 24%, 25%)" opacity="0.21"></circle><circle r="10.5" cx="1305" cy="445" fill="hsl(153, 24%, 25%)" opacity="0.45"></circle><circle r="7" cx="1363" cy="155" fill="hsl(166, 24%, 25%)" opacity="0.61"></circle><circle r="17.5" cx="70" cy="428" fill="hsl(96, 24%, 25%)" opacity="0.86"></circle><circle r="12" cx="1265" cy="531" fill="hsl(146, 24%, 25%)" opacity="0.95"></circle><circle r="15" cx="415" cy="282" fill="hsl(112, 24%, 25%)" opacity="0.80"></circle><circle r="13" cx="461" cy="744" fill="hsl(117, 24%, 25%)" opacity="0.85"></circle><circle r="7" cx="1400" cy="293" fill="hsl(168, 24%, 25%)" opacity="0.68"></circle><circle r="11.5" cx="804" cy="777" fill="hsl(138, 24%, 25%)" opacity="0.71"></circle><circle r="17" cx="211" cy="741" fill="hsl(91, 24%, 25%)" opacity="0.77"></circle><circle r="17" cx="127" cy="283" fill="hsl(92, 24%, 25%)" opacity="0.86"></circle><circle r="11.5" cx="880" cy="452" fill="hsl(139, 24%, 25%)" opacity="0.25"></circle><circle r="11" cx="1124" cy="117" fill="hsl(142, 24%, 25%)" opacity="0.20"></circle><circle r="9" cx="758" cy="78" fill="hsl(159, 24%, 25%)" opacity="0.58"></circle><circle r="15" cx="364" cy="66" fill="hsl(111, 24%, 25%)" opacity="0.81"></circle><circle r="13.5" cx="610" cy="274" fill="hsl(127, 24%, 25%)" opacity="0.84"></circle><circle r="9.5" cx="900" cy="82" fill="hsl(159, 24%, 25%)" opacity="0.61"></circle><circle r="17.5" cx="142" cy="195" fill="hsl(91, 24%, 25%)" opacity="0.92"></circle><circle r="17.5" cx="186" cy="697" fill="hsl(91, 24%, 25%)" opacity="0.64"></circle><circle r="16.5" cx="266" cy="380" fill="hsl(94, 24%, 25%)" opacity="0.63"></circle><circle r="13" cx="1175" cy="540" fill="hsl(135, 24%, 25%)" opacity="0.31"></circle><circle r="11.5" cx="459" cy="85" fill="hsl(126, 24%, 25%)" opacity="0.11"></circle><circle r="13.5" cx="507" cy="776" fill="hsl(121, 24%, 25%)" opacity="0.36"></circle><circle r="13" cx="657" cy="627" fill="hsl(129, 24%, 25%)" opacity="0.72"></circle><circle r="11" cx="972" cy="777" fill="hsl(137, 24%, 25%)" opacity="0.16"></circle><circle r="12.5" cx="967" cy="323" fill="hsl(137, 24%, 25%)" opacity="0.16"></circle><circle r="11.5" cx="439" cy="781" fill="hsl(115, 24%, 25%)" opacity="0.34"></circle><circle r="15" cx="426" cy="233" fill="hsl(115, 24%, 25%)" opacity="0.94"></circle><circle r="14" cx="485" cy="551" fill="hsl(119, 24%, 25%)" opacity="0.18"></circle><circle r="15.5" cx="318" cy="706" fill="hsl(101, 24%, 25%)" opacity="0.65"></circle><circle r="13" cx="776" cy="387" fill="hsl(135, 24%, 25%)" opacity="0.39"></circle><circle r="9.5" cx="1158" cy="23" fill="hsl(148, 24%, 25%)" opacity="0.57"></circle><circle r="8" cx="1201" cy="19" fill="hsl(150, 24%, 25%)" opacity="0.89"></circle><circle r="12.5" cx="964" cy="581" fill="hsl(137, 24%, 25%)" opacity="0.99"></circle><circle r="14" cx="497" cy="717" fill="hsl(121, 24%, 25%)" opacity="0.19"></circle><circle r="13.5" cx="541" cy="398" fill="hsl(124, 24%, 25%)" opacity="0.79"></circle><circle r="8" cx="1395" cy="728" fill="hsl(168, 24%, 25%)" opacity="0.63"></circle><circle r="14" cx="387" cy="110" fill="hsl(112, 24%, 25%)" opacity="0.60"></circle><circle r="19" cx="128" cy="682" fill="hsl(92, 24%, 25%)" opacity="0.13"></circle><circle r="11" cx="929" cy="457" fill="hsl(139, 24%, 25%)" opacity="0.85"></circle><circle r="16" cx="97" cy="190" fill="hsl(94, 24%, 25%)" opacity="0.53"></circle><circle r="15.5" cx="21" cy="508" fill="hsl(105, 24%, 25%)" opacity="0.93"></circle><circle r="15.5" cx="246" cy="778" fill="hsl(94, 24%, 25%)" opacity="1.00"></circle><circle r="6.5" cx="1402" cy="80" fill="hsl(168, 24%, 25%)" opacity="0.58"></circle><circle r="7.5" cx="1336" cy="187" fill="hsl(161, 24%, 25%)" opacity="0.81"></circle><circle r="11.5" cx="1080" cy="409" fill="hsl(133, 24%, 25%)" opacity="0.19"></circle><circle r="10" cx="1237" cy="222" fill="hsl(142, 24%, 25%)" opacity="0.88"></circle><circle r="8.5" cx="1356" cy="530" fill="hsl(164, 24%, 25%)" opacity="0.36"></circle><circle r="14" cx="622" cy="428" fill="hsl(128, 24%, 25%)" opacity="0.17"></circle><circle r="12" cx="1232" cy="774" fill="hsl(142, 24%, 25%)" opacity="0.49"></circle><circle r="8.5" cx="1348" cy="316" fill="hsl(161, 24%, 25%)" opacity="0.39"></circle><circle r="16.5" cx="287" cy="478" fill="hsl(96, 24%, 25%)" opacity="0.42"></circle><circle r="10.5" cx="1263" cy="635" fill="hsl(146, 24%, 25%)" opacity="0.38"></circle><circle r="10" cx="792" cy="123" fill="hsl(153, 24%, 25%)" opacity="0.48"></circle><circle r="17" cx="171" cy="651" fill="hsl(90, 24%, 25%)" opacity="0.68"></circle><circle r="17.5" cx="72" cy="774" fill="hsl(96, 24%, 25%)" opacity="0.96"></circle><circle r="16.5" cx="116" cy="147" fill="hsl(94, 24%, 25%)" opacity="0.92"></circle><circle r="17" cx="290" cy="113" fill="hsl(98, 24%, 25%)" opacity="0.91"></circle><circle r="14" cx="87" cy="103" fill="hsl(104, 24%, 25%)" opacity="0.73"></circle><circle r="13" cx="136" cy="21" fill="hsl(110, 24%, 25%)" opacity="0.25"></circle><circle r="9.5" cx="1353" cy="474" fill="hsl(161, 24%, 25%)" opacity="0.82"></circle><circle r="13" cx="1051" cy="191" fill="hsl(133, 24%, 25%)" opacity="0.91"></circle><circle r="11" cx="1218" cy="620" fill="hsl(139, 24%, 25%)" opacity="0.21"></circle><circle r="16.5" cx="65" cy="633" fill="hsl(98, 24%, 25%)" opacity="0.33"></circle><circle r="17.5" cx="208" cy="518" fill="hsl(91, 24%, 25%)" opacity="0.15"></circle><circle r="15.5" cx="342" cy="202" fill="hsl(104, 24%, 25%)" opacity="0.54"></circle><circle r="8" cx="719" cy="27" fill="hsl(162, 24%, 25%)" opacity="0.53"></circle><circle r="12" cx="1023" cy="772" fill="hsl(134, 24%, 25%)" opacity="0.86"></circle><circle r="14" cx="621" cy="583" fill="hsl(127, 24%, 25%)" opacity="0.53"></circle><circle r="11" cx="28" cy="21" fill="hsl(129, 24%, 25%)" opacity="0.68"></circle><circle r="10" cx="1231" cy="89" fill="hsl(151, 24%, 25%)" opacity="0.23"></circle><circle r="12.5" cx="1121" cy="390" fill="hsl(133, 24%, 25%)" opacity="0.57"></circle></svg>